<svg width="69" height="30" viewBox="0 0 69 30" fill="none" xmlns="http://www.w3.org/2000/svg">
<path d="M0.240882 22.3367V0.736669H3.85588V18.9467H13.3959V22.3367H0.240882ZM23.092 22.7867C21.472 22.7867 20.057 22.4217 18.847 21.6917C17.637 20.9617 16.697 19.9567 16.027 18.6767C15.367 17.3867 15.037 15.9067 15.037 14.2367C15.037 12.5367 15.377 11.0467 16.057 9.76667C16.737 8.48667 17.682 7.48667 18.892 6.76667C20.102 6.04667 21.502 5.68667 23.092 5.68667C24.722 5.68667 26.142 6.05167 27.352 6.78167C28.562 7.51167 29.502 8.52167 30.172 9.81167C30.842 11.0917 31.177 12.5667 31.177 14.2367C31.177 15.9167 30.837 17.4017 30.157 18.6917C29.487 19.9717 28.547 20.9767 27.337 21.7067C26.127 22.4267 24.712 22.7867 23.092 22.7867ZM23.092 19.3967C24.532 19.3967 25.602 18.9167 26.302 17.9567C27.002 16.9967 27.352 15.7567 27.352 14.2367C27.352 12.6667 26.997 11.4167 26.287 10.4867C25.577 9.54667 24.512 9.07667 23.092 9.07667C22.122 9.07667 21.322 9.29667 20.692 9.73667C20.072 10.1667 19.612 10.7717 19.312 11.5517C19.012 12.3217 18.862 13.2167 18.862 14.2367C18.862 15.8067 19.217 17.0617 19.927 18.0017C20.647 18.9317 21.702 19.3967 23.092 19.3967ZM41.2919 29.9867C40.3919 29.9867 39.5269 29.8467 38.6969 29.5667C37.8769 29.2867 37.1369 28.8817 36.4769 28.3517C35.8169 27.8317 35.2769 27.2017 34.8569 26.4617L38.1869 24.8117C38.4969 25.4017 38.9319 25.8367 39.4919 26.1167C40.0619 26.4067 40.6669 26.5517 41.3069 26.5517C42.0569 26.5517 42.7269 26.4167 43.3169 26.1467C43.9069 25.8867 44.3619 25.4967 44.6819 24.9767C45.0119 24.4667 45.1669 23.8267 45.1469 23.0567V18.4517H45.5969V6.13667H48.7619V23.1167C48.7619 23.5267 48.7419 23.9167 48.7019 24.2867C48.6719 24.6667 48.6169 25.0367 48.5369 25.3967C48.2969 26.4467 47.8369 27.3067 47.1569 27.9767C46.4769 28.6567 45.6319 29.1617 44.6219 29.4917C43.6219 29.8217 42.5119 29.9867 41.2919 29.9867ZM40.9769 22.7867C39.4869 22.7867 38.1869 22.4117 37.0769 21.6617C35.9669 20.9117 35.1069 19.8917 34.4969 18.6017C33.8869 17.3117 33.5819 15.8567 33.5819 14.2367C33.5819 12.5967 33.8869 11.1367 34.4969 9.85667C35.1169 8.56667 35.9919 7.55167 37.1219 6.81167C38.2519 6.06167 39.5819 5.68667 41.1119 5.68667C42.6519 5.68667 43.9419 6.06167 44.9819 6.81167C46.0319 7.55167 46.8269 8.56667 47.3669 9.85667C47.9069 11.1467 48.1769 12.6067 48.1769 14.2367C48.1769 15.8467 47.9069 17.3017 47.3669 18.6017C46.8269 19.8917 46.0219 20.9117 44.9519 21.6617C43.8819 22.4117 42.5569 22.7867 40.9769 22.7867ZM41.5319 19.5467C42.5019 19.5467 43.2819 19.3267 43.8719 18.8867C44.4719 18.4367 44.9069 17.8117 45.1769 17.0117C45.4569 16.2117 45.5969 15.2867 45.5969 14.2367C45.5969 13.1767 45.4569 12.2517 45.1769 11.4617C44.9069 10.6617 44.4819 10.0417 43.9019 9.60167C43.3219 9.15167 42.5719 8.92667 41.6519 8.92667C40.6819 8.92667 39.8819 9.16667 39.2519 9.64667C38.6219 10.1167 38.1569 10.7567 37.8569 11.5667C37.5569 12.3667 37.4069 13.2567 37.4069 14.2367C37.4069 15.2267 37.5519 16.1267 37.8419 16.9367C38.1419 17.7367 38.5969 18.3717 39.2069 18.8417C39.8169 19.3117 40.5919 19.5467 41.5319 19.5467ZM60.1232 22.7867C58.5032 22.7867 57.0882 22.4217 55.8782 21.6917C54.6682 20.9617 53.7282 19.9567 53.0582 18.6767C52.3982 17.3867 52.0682 15.9067 52.0682 14.2367C52.0682 12.5367 52.4082 11.0467 53.0882 9.76667C53.7682 8.48667 54.7132 7.48667 55.9232 6.76667C57.1332 6.04667 58.5332 5.68667 60.1232 5.68667C61.7532 5.68667 63.1732 6.05167 64.3832 6.78167C65.5932 7.51167 66.5332 8.52167 67.2032 9.81167C67.8732 11.0917 68.2082 12.5667 68.2082 14.2367C68.2082 15.9167 67.8682 17.4017 67.1882 18.6917C66.5182 19.9717 65.5782 20.9767 64.3682 21.7067C63.1582 22.4267 61.7432 22.7867 60.1232 22.7867ZM60.1232 19.3967C61.5632 19.3967 62.6332 18.9167 63.3332 17.9567C64.0332 16.9967 64.3832 15.7567 64.3832 14.2367C64.3832 12.6667 64.0282 11.4167 63.3182 10.4867C62.6082 9.54667 61.5432 9.07667 60.1232 9.07667C59.1532 9.07667 58.3532 9.29667 57.7232 9.73667C57.1032 10.1667 56.6432 10.7717 56.3432 11.5517C56.0432 12.3217 55.8932 13.2167 55.8932 14.2367C55.8932 15.8067 56.2482 17.0617 56.9582 18.0017C57.6782 18.9317 58.7332 19.3967 60.1232 19.3967Z" fill="#0D161D"/>
</svg>
